<mxfile host="Electron" modified="2024-07-07T08:02:02.327Z" agent="Mozilla/5.0 (Windows NT 10.0; Win64; x64) AppleWebKit/537.36 (KHTML, like Gecko) draw.io/22.1.2 Chrome/114.0.5735.289 Electron/25.9.4 Safari/537.36" etag="tqHTX8dxUayY91XcFBVx" version="22.1.2" type="device">
  <diagram name="第 1 页" id="lGHraHcWh0GdLuIry4LX">
    <mxGraphModel dx="1828" dy="1921" grid="1" gridSize="10" guides="1" tooltips="1" connect="1" arrows="1" fold="1" page="1" pageScale="1" pageWidth="827" pageHeight="1169" math="0" shadow="0">
      <root>
        <mxCell id="0" />
        <mxCell id="1" parent="0" />
        <mxCell id="8y38feYNPbBhc2Mxnbsc-106" style="edgeStyle=orthogonalEdgeStyle;rounded=0;orthogonalLoop=1;jettySize=auto;html=1;exitX=0.5;exitY=1;exitDx=0;exitDy=0;entryX=0.5;entryY=0;entryDx=0;entryDy=0;" parent="1" source="N2vVskcMrBZZl0nwfb5V-1" target="N2vVskcMrBZZl0nwfb5V-90" edge="1">
          <mxGeometry relative="1" as="geometry" />
        </mxCell>
        <mxCell id="N2vVskcMrBZZl0nwfb5V-1" value="RootNode" style="rounded=0;whiteSpace=wrap;html=1;" parent="1" vertex="1">
          <mxGeometry x="395" y="-350" width="90" height="30" as="geometry" />
        </mxCell>
        <mxCell id="N2vVskcMrBZZl0nwfb5V-2" value="Context" style="rounded=0;whiteSpace=wrap;html=1;verticalAlign=top;fontStyle=1;fontSize=13;" parent="1" vertex="1">
          <mxGeometry x="-350" y="-584" width="280" height="254" as="geometry" />
        </mxCell>
        <mxCell id="N2vVskcMrBZZl0nwfb5V-3" value="Blackboard" style="rounded=0;whiteSpace=wrap;html=1;verticalAlign=top;fontStyle=1;fontSize=13;" parent="1" vertex="1">
          <mxGeometry x="-30" y="-584" width="210" height="170" as="geometry" />
        </mxCell>
        <mxCell id="N2vVskcMrBZZl0nwfb5V-4" value="PlayerGameplayInputHandler" style="rounded=1;whiteSpace=wrap;html=1;" parent="1" vertex="1">
          <mxGeometry x="-340" y="-539" width="260" height="40" as="geometry" />
        </mxCell>
        <mxCell id="N2vVskcMrBZZl0nwfb5V-6" value="Animator Controller" style="rounded=1;whiteSpace=wrap;html=1;" parent="1" vertex="1">
          <mxGeometry x="-340" y="-489" width="260" height="40" as="geometry" />
        </mxCell>
        <mxCell id="N2vVskcMrBZZl0nwfb5V-112" style="edgeStyle=orthogonalEdgeStyle;rounded=0;orthogonalLoop=1;jettySize=auto;html=1;entryX=0.5;entryY=0;entryDx=0;entryDy=0;exitX=0.5;exitY=1;exitDx=0;exitDy=0;" parent="1" source="N2vVskcMrBZZl0nwfb5V-90" target="N2vVskcMrBZZl0nwfb5V-109" edge="1">
          <mxGeometry relative="1" as="geometry" />
        </mxCell>
        <mxCell id="8y38feYNPbBhc2Mxnbsc-62" style="edgeStyle=orthogonalEdgeStyle;rounded=0;orthogonalLoop=1;jettySize=auto;html=1;exitX=0.5;exitY=1;exitDx=0;exitDy=0;" parent="1" source="N2vVskcMrBZZl0nwfb5V-90" target="8y38feYNPbBhc2Mxnbsc-57" edge="1">
          <mxGeometry relative="1" as="geometry" />
        </mxCell>
        <mxCell id="8y38feYNPbBhc2Mxnbsc-118" style="edgeStyle=orthogonalEdgeStyle;rounded=0;orthogonalLoop=1;jettySize=auto;html=1;entryX=0.5;entryY=0;entryDx=0;entryDy=0;exitX=0.5;exitY=1;exitDx=0;exitDy=0;" parent="1" source="N2vVskcMrBZZl0nwfb5V-90" target="8y38feYNPbBhc2Mxnbsc-109" edge="1">
          <mxGeometry relative="1" as="geometry" />
        </mxCell>
        <mxCell id="N2vVskcMrBZZl0nwfb5V-90" value="Selector&lt;br&gt;Node" style="rounded=0;whiteSpace=wrap;html=1;" parent="1" vertex="1">
          <mxGeometry x="395" y="-290" width="90" height="40" as="geometry" />
        </mxCell>
        <mxCell id="8y38feYNPbBhc2Mxnbsc-66" style="edgeStyle=orthogonalEdgeStyle;rounded=0;orthogonalLoop=1;jettySize=auto;html=1;entryX=0.5;entryY=0;entryDx=0;entryDy=0;exitX=0.5;exitY=1;exitDx=0;exitDy=0;" parent="1" source="N2vVskcMrBZZl0nwfb5V-109" target="8y38feYNPbBhc2Mxnbsc-1" edge="1">
          <mxGeometry relative="1" as="geometry" />
        </mxCell>
        <mxCell id="8y38feYNPbBhc2Mxnbsc-67" value="Grounded" style="edgeLabel;html=1;align=center;verticalAlign=middle;resizable=0;points=[];fontStyle=1;fontSize=15;" parent="8y38feYNPbBhc2Mxnbsc-66" vertex="1" connectable="0">
          <mxGeometry x="0.6639" y="-1" relative="1" as="geometry">
            <mxPoint as="offset" />
          </mxGeometry>
        </mxCell>
        <mxCell id="8y38feYNPbBhc2Mxnbsc-68" style="edgeStyle=orthogonalEdgeStyle;rounded=0;orthogonalLoop=1;jettySize=auto;html=1;entryX=0.5;entryY=0;entryDx=0;entryDy=0;exitX=0.5;exitY=1;exitDx=0;exitDy=0;" parent="1" source="N2vVskcMrBZZl0nwfb5V-109" target="8y38feYNPbBhc2Mxnbsc-2" edge="1">
          <mxGeometry relative="1" as="geometry" />
        </mxCell>
        <mxCell id="N2vVskcMrBZZl0nwfb5V-109" value="Grounded&lt;br&gt;Sequencer Node" style="rounded=0;whiteSpace=wrap;html=1;" parent="1" vertex="1">
          <mxGeometry x="-130" y="-160" width="100" height="40" as="geometry" />
        </mxCell>
        <mxCell id="8y38feYNPbBhc2Mxnbsc-1" value="Grounded&lt;br&gt;Condition Node" style="rounded=0;whiteSpace=wrap;html=1;" parent="1" vertex="1">
          <mxGeometry x="-250" y="20" width="100" height="40" as="geometry" />
        </mxCell>
        <mxCell id="8y38feYNPbBhc2Mxnbsc-6" style="edgeStyle=orthogonalEdgeStyle;rounded=0;orthogonalLoop=1;jettySize=auto;html=1;entryX=0.5;entryY=0;entryDx=0;entryDy=0;exitX=0.5;exitY=1;exitDx=0;exitDy=0;" parent="1" source="8y38feYNPbBhc2Mxnbsc-2" target="8y38feYNPbBhc2Mxnbsc-3" edge="1">
          <mxGeometry relative="1" as="geometry" />
        </mxCell>
        <mxCell id="8y38feYNPbBhc2Mxnbsc-2" value="Selector&lt;br&gt;Node" style="rounded=0;whiteSpace=wrap;html=1;" parent="1" vertex="1">
          <mxGeometry x="10" y="20" width="90" height="40" as="geometry" />
        </mxCell>
        <mxCell id="dRRS9ncyxCazhDDXAtv3-3" style="edgeStyle=orthogonalEdgeStyle;rounded=0;orthogonalLoop=1;jettySize=auto;html=1;exitX=0.5;exitY=1;exitDx=0;exitDy=0;" edge="1" parent="1" source="8y38feYNPbBhc2Mxnbsc-3" target="dRRS9ncyxCazhDDXAtv3-2">
          <mxGeometry relative="1" as="geometry" />
        </mxCell>
        <mxCell id="dRRS9ncyxCazhDDXAtv3-4" style="edgeStyle=orthogonalEdgeStyle;rounded=0;orthogonalLoop=1;jettySize=auto;html=1;entryX=0.5;entryY=0;entryDx=0;entryDy=0;" edge="1" parent="1" source="8y38feYNPbBhc2Mxnbsc-3" target="dRRS9ncyxCazhDDXAtv3-1">
          <mxGeometry relative="1" as="geometry" />
        </mxCell>
        <mxCell id="8y38feYNPbBhc2Mxnbsc-3" value="Sequencer Node" style="rounded=0;whiteSpace=wrap;html=1;" parent="1" vertex="1">
          <mxGeometry x="-96" y="140" width="90" height="40" as="geometry" />
        </mxCell>
        <mxCell id="8y38feYNPbBhc2Mxnbsc-53" value="Movement&lt;br&gt;Selector Node" style="rounded=0;whiteSpace=wrap;html=1;fillColor=#f8cecc;strokeColor=#b85450;" parent="1" vertex="1">
          <mxGeometry x="116" y="140" width="90" height="40" as="geometry" />
        </mxCell>
        <mxCell id="8y38feYNPbBhc2Mxnbsc-55" style="edgeStyle=orthogonalEdgeStyle;rounded=0;orthogonalLoop=1;jettySize=auto;html=1;entryX=0.5;entryY=0;entryDx=0;entryDy=0;exitX=0.5;exitY=1;exitDx=0;exitDy=0;" parent="1" source="8y38feYNPbBhc2Mxnbsc-2" target="8y38feYNPbBhc2Mxnbsc-53" edge="1">
          <mxGeometry relative="1" as="geometry" />
        </mxCell>
        <mxCell id="8y38feYNPbBhc2Mxnbsc-82" style="edgeStyle=orthogonalEdgeStyle;rounded=0;orthogonalLoop=1;jettySize=auto;html=1;entryX=0.5;entryY=0;entryDx=0;entryDy=0;exitX=0.5;exitY=1;exitDx=0;exitDy=0;" parent="1" source="8y38feYNPbBhc2Mxnbsc-57" target="8y38feYNPbBhc2Mxnbsc-81" edge="1">
          <mxGeometry relative="1" as="geometry">
            <Array as="points">
              <mxPoint x="440" y="-70" />
              <mxPoint x="551" y="-70" />
            </Array>
          </mxGeometry>
        </mxCell>
        <mxCell id="8y38feYNPbBhc2Mxnbsc-57" value="TouchingWall&lt;br&gt;Sequencer Node" style="rounded=0;whiteSpace=wrap;html=1;" parent="1" vertex="1">
          <mxGeometry x="390" y="-160" width="100" height="40" as="geometry" />
        </mxCell>
        <mxCell id="8y38feYNPbBhc2Mxnbsc-58" value="IsTouching Wall&lt;br&gt;Condition Node" style="rounded=0;whiteSpace=wrap;html=1;" parent="1" vertex="1">
          <mxGeometry x="250" y="20" width="100" height="40" as="geometry" />
        </mxCell>
        <mxCell id="8y38feYNPbBhc2Mxnbsc-59" value="Touching Wall&lt;br&gt;Selector Node" style="rounded=0;whiteSpace=wrap;html=1;fillColor=#f8cecc;strokeColor=#b85450;" parent="1" vertex="1">
          <mxGeometry x="627" y="140" width="90" height="40" as="geometry" />
        </mxCell>
        <mxCell id="8y38feYNPbBhc2Mxnbsc-60" style="edgeStyle=orthogonalEdgeStyle;rounded=0;orthogonalLoop=1;jettySize=auto;html=1;entryX=0.57;entryY=-0.012;entryDx=0;entryDy=0;entryPerimeter=0;exitX=0.5;exitY=1;exitDx=0;exitDy=0;" parent="1" source="8y38feYNPbBhc2Mxnbsc-57" target="8y38feYNPbBhc2Mxnbsc-58" edge="1">
          <mxGeometry relative="1" as="geometry">
            <Array as="points">
              <mxPoint x="440" y="-70" />
              <mxPoint x="307" y="-70" />
            </Array>
          </mxGeometry>
        </mxCell>
        <mxCell id="8y38feYNPbBhc2Mxnbsc-61" value="IsTouching Wall" style="edgeLabel;html=1;align=center;verticalAlign=middle;resizable=0;points=[];fontStyle=1;fontSize=15;" parent="8y38feYNPbBhc2Mxnbsc-60" vertex="1" connectable="0">
          <mxGeometry x="0.5999" y="2" relative="1" as="geometry">
            <mxPoint as="offset" />
          </mxGeometry>
        </mxCell>
        <mxCell id="8y38feYNPbBhc2Mxnbsc-84" style="edgeStyle=orthogonalEdgeStyle;rounded=0;orthogonalLoop=1;jettySize=auto;html=1;entryX=0.5;entryY=0;entryDx=0;entryDy=0;" parent="1" source="8y38feYNPbBhc2Mxnbsc-81" target="8y38feYNPbBhc2Mxnbsc-83" edge="1">
          <mxGeometry relative="1" as="geometry" />
        </mxCell>
        <mxCell id="8y38feYNPbBhc2Mxnbsc-85" style="edgeStyle=orthogonalEdgeStyle;rounded=0;orthogonalLoop=1;jettySize=auto;html=1;exitX=0.5;exitY=1;exitDx=0;exitDy=0;" parent="1" source="8y38feYNPbBhc2Mxnbsc-81" target="8y38feYNPbBhc2Mxnbsc-59" edge="1">
          <mxGeometry relative="1" as="geometry" />
        </mxCell>
        <mxCell id="8y38feYNPbBhc2Mxnbsc-81" value="Selector&lt;br&gt;Node" style="rounded=0;whiteSpace=wrap;html=1;" parent="1" vertex="1">
          <mxGeometry x="506" y="20" width="90" height="40" as="geometry" />
        </mxCell>
        <mxCell id="8y38feYNPbBhc2Mxnbsc-83" value="Ability Input&lt;br&gt;Selector Node" style="rounded=0;whiteSpace=wrap;html=1;fillColor=#f8cecc;strokeColor=#b85450;" parent="1" vertex="1">
          <mxGeometry x="425" y="140" width="90" height="40" as="geometry" />
        </mxCell>
        <mxCell id="8y38feYNPbBhc2Mxnbsc-108" style="edgeStyle=orthogonalEdgeStyle;rounded=0;orthogonalLoop=1;jettySize=auto;html=1;entryX=0.5;entryY=0;entryDx=0;entryDy=0;exitX=0.5;exitY=1;exitDx=0;exitDy=0;" parent="1" source="8y38feYNPbBhc2Mxnbsc-109" target="8y38feYNPbBhc2Mxnbsc-117" edge="1">
          <mxGeometry relative="1" as="geometry">
            <Array as="points">
              <mxPoint x="890" y="-70" />
              <mxPoint x="1001" y="-70" />
            </Array>
            <mxPoint x="1001.0000000000005" y="20" as="targetPoint" />
          </mxGeometry>
        </mxCell>
        <mxCell id="8y38feYNPbBhc2Mxnbsc-109" value="InAir&lt;br&gt;Sequencer Node" style="rounded=0;whiteSpace=wrap;html=1;" parent="1" vertex="1">
          <mxGeometry x="840" y="-160" width="100" height="40" as="geometry" />
        </mxCell>
        <mxCell id="8y38feYNPbBhc2Mxnbsc-110" value="InAir&lt;br&gt;Condition Node" style="rounded=0;whiteSpace=wrap;html=1;" parent="1" vertex="1">
          <mxGeometry x="700" y="20" width="100" height="40" as="geometry" />
        </mxCell>
        <mxCell id="8y38feYNPbBhc2Mxnbsc-112" style="edgeStyle=orthogonalEdgeStyle;rounded=0;orthogonalLoop=1;jettySize=auto;html=1;entryX=0.57;entryY=-0.012;entryDx=0;entryDy=0;entryPerimeter=0;exitX=0.5;exitY=1;exitDx=0;exitDy=0;" parent="1" source="8y38feYNPbBhc2Mxnbsc-109" target="8y38feYNPbBhc2Mxnbsc-110" edge="1">
          <mxGeometry relative="1" as="geometry">
            <Array as="points">
              <mxPoint x="890" y="-70" />
              <mxPoint x="757" y="-70" />
            </Array>
          </mxGeometry>
        </mxCell>
        <mxCell id="8y38feYNPbBhc2Mxnbsc-113" value="InAir" style="edgeLabel;html=1;align=center;verticalAlign=middle;resizable=0;points=[];fontStyle=1;fontSize=15;" parent="8y38feYNPbBhc2Mxnbsc-112" vertex="1" connectable="0">
          <mxGeometry x="0.5999" y="2" relative="1" as="geometry">
            <mxPoint as="offset" />
          </mxGeometry>
        </mxCell>
        <mxCell id="8y38feYNPbBhc2Mxnbsc-117" value="Ability Input&lt;br&gt;Selector Node" style="rounded=0;whiteSpace=wrap;html=1;fillColor=#f8cecc;strokeColor=#b85450;" parent="1" vertex="1">
          <mxGeometry x="956" y="20" width="90" height="40" as="geometry" />
        </mxCell>
        <mxCell id="dRRS9ncyxCazhDDXAtv3-1" value="Ability Input&lt;br&gt;Selector Node" style="rounded=0;whiteSpace=wrap;html=1;fillColor=#f8cecc;strokeColor=#b85450;" vertex="1" parent="1">
          <mxGeometry x="-30" y="230" width="90" height="40" as="geometry" />
        </mxCell>
        <mxCell id="dRRS9ncyxCazhDDXAtv3-2" value="Is Not Crouch&lt;br&gt;Condition Node" style="rounded=0;whiteSpace=wrap;html=1;" vertex="1" parent="1">
          <mxGeometry x="-180" y="230" width="100" height="40" as="geometry" />
        </mxCell>
      </root>
    </mxGraphModel>
  </diagram>
</mxfile>
